<?xml version="1.0" encoding="UTF-8"?>
<!DOCTYPE svg PUBLIC "-//W3C//DTD SVG 1.1//EN" "http://www.w3.org/Graphics/SVG/1.1/DTD/svg11.dtd">
<svg xmlns="http://www.w3.org/2000/svg" version="1.1" width="534px" height="256px" style="shape-rendering:geometricPrecision; text-rendering:geometricPrecision; image-rendering:optimizeQuality; fill-rule:evenodd; clip-rule:evenodd" xmlns:xlink="http://www.w3.org/1999/xlink">
<g><path style="opacity:0.874" fill="#021c32" d="M 120.5,-0.5 C 125.833,-0.5 131.167,-0.5 136.5,-0.5C 147.345,2.438 156.011,8.60466 162.5,18C 170.278,19.8885 177.612,22.8885 184.5,27C 203.042,31.4028 221.042,37.4028 238.5,45C 262.702,131.08 236.369,196.746 159.5,242C 150.408,246.546 141.408,251.046 132.5,255.5C 129.833,255.5 127.167,255.5 124.5,255.5C 95.3765,243.52 69.8765,226.186 48,203.5C 15.4297,165.762 3.09641,122.096 11,72.5C 12.3498,64.434 14.0165,56.434 16,48.5C 16.4652,47.0692 17.2986,45.9025 18.5,45C 36.2846,38.0717 54.2846,31.7384 72.5,26C 79.4622,21.8993 86.7955,18.5659 94.5,16C 101.293,7.34096 109.96,1.84096 120.5,-0.5 Z"/></g>
<g><path style="opacity:1" fill="#fafbfa" d="M 149.5,15.5 C 151.919,19.3359 154.086,23.3359 156,27.5C 156.167,30 156.333,32.5 156.5,35C 156.475,37.9294 155.809,40.4294 154.5,42.5C 149.002,42.0682 143.669,42.7348 138.5,44.5C 137.291,42.0592 135.624,40.0592 133.5,38.5C 129.183,35.659 125.017,35.9923 121,39.5C 120.209,40.745 119.709,42.0783 119.5,43.5C 112.086,42.3076 104.42,42.3076 96.5,43.5C 94.6482,36.2002 95.3149,29.2002 98.5,22.5C 111.662,4.29344 127.995,0.793441 147.5,12C 148.823,12.8159 149.489,13.9826 149.5,15.5 Z"/></g>
<g><path style="opacity:1" fill="#f8f8f8" d="M 88.5,26.5 C 88.1688,33.3539 88.6688,40.3539 90,47.5C 84.5925,51.0733 80.4258,55.74 77.5,61.5C 66.4398,65.7258 59.4398,73.5591 56.5,85C 50.1754,85.4995 43.8421,85.6662 37.5,85.5C 37.6752,64.8256 48.0085,54.3256 68.5,54C 66.5172,52.1111 64.1838,50.7777 61.5,50C 67.3652,42.9692 73.6985,36.4692 80.5,30.5C 83.395,29.6006 86.0616,28.2672 88.5,26.5 Z"/></g>
<g><path style="opacity:1" fill="#c7e2f1" d="M 149.5,15.5 C 154.416,17.6227 157.75,21.2894 159.5,26.5C 160.615,31.7499 160.781,37.0833 160,42.5C 158.057,43.807 156.223,43.807 154.5,42.5C 155.809,40.4294 156.475,37.9294 156.5,35C 156.333,32.5 156.167,30 156,27.5C 154.086,23.3359 151.919,19.3359 149.5,15.5 Z"/></g>
<g><path style="opacity:1" fill="#0c273e" d="M 98.5,22.5 C 95.3149,29.2002 94.6482,36.2002 96.5,43.5C 104.42,42.3076 112.086,42.3076 119.5,43.5C 120.167,44.5 120.833,45.5 121.5,46.5C 122.562,51.3689 125.562,53.2023 130.5,52C 135.641,49.1057 136.641,45.2724 133.5,40.5C 132.494,39.6043 132.494,38.9377 133.5,38.5C 135.624,40.0592 137.291,42.0592 138.5,44.5C 143.669,42.7348 149.002,42.0682 154.5,42.5C 156.223,43.807 158.057,43.807 160,42.5C 160.781,37.0833 160.615,31.7499 159.5,26.5C 162.094,24.1354 164.761,24.1354 167.5,26.5C 167.062,26.4346 166.728,26.6012 166.5,27C 167.916,29.6271 168.583,32.4605 168.5,35.5C 167.656,39.8373 167.156,44.1706 167,48.5C 172.407,52.0733 176.574,56.74 179.5,62.5C 189.254,65.9206 195.587,72.5872 198.5,82.5C 197.778,82.9175 197.278,83.5842 197,84.5C 196.613,80.7821 194.947,77.7821 192,75.5C 191.292,76.3805 190.458,77.0472 189.5,77.5C 187.167,75.5 184.833,73.5 182.5,71.5C 179.784,69.5326 176.784,68.0326 173.5,67C 167.433,52.9634 156.766,47.2967 141.5,50C 137.817,51.8409 134.484,54.1742 131.5,57C 144.068,58.7339 154.901,63.9006 164,72.5C 164.824,81.6762 164.657,90.6762 163.5,99.5C 162.89,97.1497 162.556,97.483 162.5,100.5C 161.5,100.5 160.5,100.5 159.5,100.5C 159.781,96.8121 160.281,93.1454 161,89.5C 161.202,91.2556 161.702,92.9223 162.5,94.5C 162.833,94.3333 163.167,94.1667 163.5,94C 162.045,88.9766 161.212,83.8099 161,78.5C 160.667,81.8333 160.333,85.1667 160,88.5C 159.821,84.9748 159.321,81.6414 158.5,78.5C 158.532,76.3812 157.532,75.0478 155.5,74.5C 154.833,73.8333 154.167,73.1667 153.5,72.5C 134.018,59.6909 115.185,60.6909 97,75.5C 96.5172,76.448 96.3505,77.448 96.5,78.5C 95.3121,77.3157 94.1455,77.3157 93,78.5C 92.8276,84.6807 92.3276,90.6807 91.5,96.5C 90.3671,88.5789 90.2004,80.5789 91,72.5C 100.441,63.6977 111.607,58.531 124.5,57C 117.591,49.9419 109.258,47.6086 99.5,50C 91.1408,53.0259 85.4741,58.6925 82.5,67C 65.9843,72.8622 60.151,84.3622 65,101.5C 66.9779,105.638 69.8112,108.971 73.5,111.5C 73.0934,112.762 72.76,114.095 72.5,115.5C 71.2997,114.469 69.9663,113.635 68.5,113C 72.1658,112.61 72.3324,111.443 69,109.5C 68.3918,111.066 67.5585,112.4 66.5,113.5C 64.5212,112.188 62.8545,110.521 61.5,108.5C 60.52,111.086 60.1866,113.753 60.5,116.5C 59.8337,112.979 59.1671,109.313 58.5,105.5C 57.4104,106.391 57.4104,107.391 58.5,108.5C 57.8864,112.967 57.2197,117.3 56.5,121.5C 55.3635,111.532 55.3635,101.532 56.5,91.5C 49.5,91.5 42.5,91.5 35.5,91.5C 33.0095,120.847 40.1761,147.514 57,171.5C 70.2969,187.231 86.7969,198.064 106.5,204C 112.678,206.001 119.012,206.834 125.5,206.5C 125.824,202.445 125.491,198.445 124.5,194.5C 119.969,191.806 118.635,188.14 120.5,183.5C 121.167,184.167 121.833,184.833 122.5,185.5C 123.843,190.078 126.843,191.578 131.5,190C 135.676,186.053 135.343,182.553 130.5,179.5C 130.5,179.167 130.5,178.833 130.5,178.5C 136.127,180.588 137.961,184.588 136,190.5C 134.276,192.413 132.776,194.413 131.5,196.5C 131.5,199.833 131.5,203.167 131.5,206.5C 155.569,205.128 176.236,196.128 193.5,179.5C 194.995,179.415 195.995,180.081 196.5,181.5C 187.215,191.137 176.549,198.804 164.5,204.5C 160.569,205.389 156.902,206.722 153.5,208.5C 146.285,210.245 138.951,211.245 131.5,211.5C 131.5,217.833 131.5,224.167 131.5,230.5C 131.5,232.833 131.5,235.167 131.5,237.5C 130.292,238.234 128.959,238.567 127.5,238.5C 126.508,238.672 125.842,238.338 125.5,237.5C 125.5,228.833 125.5,220.167 125.5,211.5C 112.062,211.474 99.395,208.307 87.5,202C 76.7342,196.287 67.0675,189.12 58.5,180.5C 35.8618,152.873 27.0285,121.206 32,85.5C 33.3532,78.7538 35.0199,72.0871 37,65.5C 40.5446,57.9684 46.3779,53.135 54.5,51C 55.3805,50.2917 56.0472,49.4584 56.5,48.5C 59.9207,43.5738 63.9207,39.0738 68.5,35C 68.2716,34.6012 67.9382,34.4346 67.5,34.5C 71.1521,33.4136 74.9855,31.7469 79,29.5C 79.7648,29.5699 80.2648,29.9033 80.5,30.5C 73.6985,36.4692 67.3652,42.9692 61.5,50C 64.1838,50.7777 66.5172,52.1111 68.5,54C 48.0085,54.3256 37.6752,64.8256 37.5,85.5C 43.8421,85.6662 50.1754,85.4995 56.5,85C 59.4398,73.5591 66.4398,65.7258 77.5,61.5C 80.4258,55.74 84.5925,51.0733 90,47.5C 88.6688,40.3539 88.1688,33.3539 88.5,26.5C 91.3243,23.4052 94.6576,22.0719 98.5,22.5 Z"/></g>
<g><path style="opacity:1" fill="#49acc9" d="M 133.5,38.5 C 132.494,38.9377 132.494,39.6043 133.5,40.5C 130.833,40.5 128.167,40.5 125.5,40.5C 127.292,39.6909 129.292,39.1909 131.5,39C 126.124,36.8574 122.791,38.6908 121.5,44.5C 121.5,45.1667 121.5,45.8333 121.5,46.5C 120.833,45.5 120.167,44.5 119.5,43.5C 119.709,42.0783 120.209,40.745 121,39.5C 125.017,35.9923 129.183,35.659 133.5,38.5 Z"/></g>
<g><path style="opacity:1" fill="#d7f5f7" d="M 125.5,40.5 C 123.806,41.5274 122.473,42.8608 121.5,44.5C 122.791,38.6908 126.124,36.8574 131.5,39C 129.292,39.1909 127.292,39.6909 125.5,40.5 Z"/></g>
<g><path style="opacity:1" fill="#f5f8f8" d="M 67.5,34.5 C 67.9382,34.4346 68.2716,34.6012 68.5,35C 63.9207,39.0738 59.9207,43.5738 56.5,48.5C 47.6896,50.6036 39.1896,53.6036 31,57.5C 28.4388,65.9733 26.7722,74.64 26,83.5C 22.19,114.448 27.8566,143.448 43,170.5C 45.2774,174.08 47.7774,177.414 50.5,180.5C 70.0234,206.688 95.0234,225.688 125.5,237.5C 125.842,238.338 126.508,238.672 127.5,238.5C 129.176,242.243 128.843,245.576 126.5,248.5C 88.4647,234.288 58.298,210.288 36,176.5C 13.8975,136.41 9.3975,94.4101 22.5,50.5C 37.2362,44.3661 52.2362,39.0328 67.5,34.5 Z"/></g>
<g><path style="opacity:1" fill="#19b1f3" d="M 125.5,40.5 C 128.167,40.5 130.833,40.5 133.5,40.5C 136.641,45.2724 135.641,49.1057 130.5,52C 125.562,53.2023 122.562,51.3689 121.5,46.5C 121.5,45.8333 121.5,45.1667 121.5,44.5C 122.473,42.8608 123.806,41.5274 125.5,40.5 Z"/></g>
<g><path style="opacity:1" fill="#cce6f3" d="M 167.5,26.5 C 171.184,28.5283 174.85,30.5283 178.5,32.5C 184.635,37.8029 190.302,43.6362 195.5,50C 193.004,51.0804 190.67,52.4138 188.5,54C 209.527,53.8593 220.193,64.3593 220.5,85.5C 213.468,85.8303 206.468,85.497 199.5,84.5C 199.137,83.8165 198.804,83.1499 198.5,82.5C 195.587,72.5872 189.254,65.9206 179.5,62.5C 176.574,56.74 172.407,52.0733 167,48.5C 167.156,44.1706 167.656,39.8373 168.5,35.5C 168.583,32.4605 167.916,29.6271 166.5,27C 166.728,26.6012 167.062,26.4346 167.5,26.5 Z"/></g>
<g><path style="opacity:1" fill="#fafafa" d="M 91.5,96.5 C 92.1587,99.4552 92.4921,102.455 92.5,105.5C 92.5858,106.496 92.2524,107.329 91.5,108C 86.305,111.101 80.6383,112.268 74.5,111.5C 74.1667,111.5 73.8333,111.5 73.5,111.5C 69.8112,108.971 66.9779,105.638 65,101.5C 60.151,84.3622 65.9843,72.8622 82.5,67C 85.4741,58.6925 91.1408,53.0259 99.5,50C 109.258,47.6086 117.591,49.9419 124.5,57C 111.607,58.531 100.441,63.6977 91,72.5C 90.2004,80.5789 90.3671,88.5789 91.5,96.5 Z"/></g>
<g><path style="opacity:1" fill="#f6f8f9" d="M 182.5,71.5 C 191.831,86.5858 188.498,98.0858 172.5,106C 169.518,106.498 166.518,106.665 163.5,106.5C 163.5,105.167 163.5,103.833 163.5,102.5C 163.5,101.5 163.5,100.5 163.5,99.5C 164.657,90.6762 164.824,81.6762 164,72.5C 154.901,63.9006 144.068,58.7339 131.5,57C 134.484,54.1742 137.817,51.8409 141.5,50C 156.766,47.2967 167.433,52.9634 173.5,67C 176.784,68.0326 179.784,69.5326 182.5,71.5 Z"/></g>
<g><path style="opacity:0.911" fill="#000000" d="M 301.5,58.5 C 309.001,58.9167 316.334,60.25 323.5,62.5C 323.833,62.8333 324.167,63.1667 324.5,63.5C 323.366,66.0698 322.532,68.7365 322,71.5C 321.439,72.0219 320.772,72.3552 320,72.5C 306.216,67.5832 293.05,68.7499 280.5,76C 269.591,87.1682 266.424,100.335 271,115.5C 274.342,126.174 281.509,132.674 292.5,135C 298.833,135.667 305.167,135.667 311.5,135C 312.766,134.691 313.933,134.191 315,133.5C 315.5,125.507 315.666,117.507 315.5,109.5C 309.5,109.5 303.5,109.5 297.5,109.5C 297.5,106.5 297.5,103.5 297.5,100.5C 307.167,100.5 316.833,100.5 326.5,100.5C 327.138,114.579 326.472,128.412 324.5,142C 312.722,145.325 300.722,146.325 288.5,145C 267.018,139.413 256.351,125.413 256.5,103C 258.789,75.2104 273.789,60.3771 301.5,58.5 Z"/></g>
<g><path style="opacity:0.923" fill="#000000" d="M 470.5,59.5 C 485.833,59.5 501.167,59.5 516.5,59.5C 516.5,63.1667 516.5,66.8333 516.5,70.5C 504.833,70.5 493.167,70.5 481.5,70.5C 481.5,78.8333 481.5,87.1667 481.5,95.5C 492.5,95.5 503.5,95.5 514.5,95.5C 514.5,98.5 514.5,101.5 514.5,104.5C 503.5,104.5 492.5,104.5 481.5,104.5C 481.5,114.5 481.5,124.5 481.5,134.5C 493.833,134.5 506.167,134.5 518.5,134.5C 518.5,138.167 518.5,141.833 518.5,145.5C 502.5,145.5 486.5,145.5 470.5,145.5C 470.5,116.833 470.5,88.1667 470.5,59.5 Z"/></g>
<g><path style="opacity:0.911" fill="#000000" d="M 363.5,60.5 C 368.5,60.5 373.5,60.5 378.5,60.5C 387.427,88.2799 396.76,115.947 406.5,143.5C 402.167,144.833 397.833,144.833 393.5,143.5C 390.425,135.277 387.759,126.944 385.5,118.5C 375.5,118.5 365.5,118.5 355.5,118.5C 353.241,126.944 350.575,135.277 347.5,143.5C 343.555,144.491 339.555,144.824 335.5,144.5C 344.27,116.297 353.603,88.2975 363.5,60.5 Z M 369.5,73.5 C 370.117,73.6107 370.617,73.944 371,74.5C 374.44,86.1531 378.273,97.6531 382.5,109C 374.479,109.832 366.479,109.665 358.5,108.5C 363.179,97.1306 366.846,85.4639 369.5,73.5 Z"/></g>
<g><path style="opacity:0.969" fill="#000000" d="M 399.5,60.5 C 420.5,60.5 441.5,60.5 462.5,60.5C 462.5,63.8333 462.5,67.1667 462.5,70.5C 453.833,70.5 445.167,70.5 436.5,70.5C 436.5,95.1667 436.5,119.833 436.5,144.5C 432.833,144.5 429.167,144.5 425.5,144.5C 425.5,119.833 425.5,95.1667 425.5,70.5C 416.833,70.5 408.167,70.5 399.5,70.5C 399.5,67.1667 399.5,63.8333 399.5,60.5 Z"/></g>
<g><path style="opacity:1" fill="#fc4947" d="M 153.5,72.5 C 154.167,73.1667 154.833,73.8333 155.5,74.5C 157.512,96.9943 152.012,117.661 139,136.5C 136.194,139.603 132.694,141.27 128.5,141.5C 128.5,145.833 128.5,150.167 128.5,154.5C 123.488,150.813 119.488,146.146 116.5,140.5C 116.008,138.181 115.008,136.181 113.5,134.5C 103.639,116.391 99.139,97.0575 100,76.5C 111.016,67.3819 123.516,64.2152 137.5,67C 142.906,68.746 148.239,70.5793 153.5,72.5 Z"/></g>
<g><path style="opacity:1" fill="#e5e1e0" d="M 153.5,72.5 C 148.239,70.5793 142.906,68.746 137.5,67C 123.516,64.2152 111.016,67.3819 100,76.5C 99.139,97.0575 103.639,116.391 113.5,134.5C 113.5,134.833 113.5,135.167 113.5,135.5C 107.167,127.164 102.667,117.831 100,107.5C 97.9296,97.9371 96.763,88.2705 96.5,78.5C 96.3505,77.448 96.5172,76.448 97,75.5C 115.185,60.6909 134.018,59.6909 153.5,72.5 Z"/></g>
<g><path style="opacity:1" fill="#f8f8f8" d="M 56.5,121.5 C 57.8278,126.463 58.6611,131.463 59,136.5C 55.5749,137.095 52.0749,137.262 48.5,137C 44.0842,141.169 44.7509,144.002 50.5,145.5C 53.8273,144.124 57.3273,143.124 61,142.5C 61.8333,142.833 62.6667,143.167 63.5,143.5C 65.7376,148.562 68.5709,153.228 72,157.5C 72.6667,158.167 72.6667,158.833 72,159.5C 68.7026,161.795 65.7026,164.462 63,167.5C 62.51,168.793 62.3433,170.127 62.5,171.5C 64.1992,171.66 65.8659,171.494 67.5,171C 70.0482,168.115 72.8815,165.615 76,163.5C 83.2809,169.437 91.1142,174.604 99.5,179C 105.184,181.841 111.184,183.341 117.5,183.5C 117.433,182.041 117.766,180.708 118.5,179.5C 120.6,177.384 122.933,175.717 125.5,174.5C 127.5,174.5 129.5,174.5 131.5,174.5C 133.223,176.218 135.223,177.551 137.5,178.5C 138.087,180.755 139.42,182.421 141.5,183.5C 156.751,180.293 169.918,173.293 181,162.5C 183.372,164.703 185.539,167.037 187.5,169.5C 181.052,178.214 172.719,184.214 162.5,187.5C 161.833,187.5 161.5,187.833 161.5,188.5C 152.276,193.553 142.276,196.22 131.5,196.5C 132.776,194.413 134.276,192.413 136,190.5C 137.961,184.588 136.127,180.588 130.5,178.5C 125.977,177.278 122.644,178.945 120.5,183.5C 118.635,188.14 119.969,191.806 124.5,194.5C 125.491,198.445 125.824,202.445 125.5,206.5C 119.012,206.834 112.678,206.001 106.5,204C 86.7969,198.064 70.2969,187.231 57,171.5C 40.1761,147.514 33.0095,120.847 35.5,91.5C 42.5,91.5 49.5,91.5 56.5,91.5C 55.3635,101.532 55.3635,111.532 56.5,121.5 Z"/></g>
<g><path style="opacity:1" fill="#cbe4f1" d="M 188.5,34.5 C 204.163,38.8325 219.497,44.1658 234.5,50.5C 254.539,130.921 229.205,192.421 158.5,235C 149.377,240.044 140.044,244.711 130.5,249C 128.934,249.765 127.601,249.598 126.5,248.5C 128.843,245.576 129.176,242.243 127.5,238.5C 128.959,238.567 130.292,238.234 131.5,237.5C 148.503,230.676 163.837,221.343 177.5,209.5C 220.144,175.45 237.644,131.117 230,76.5C 229.515,70.7421 228.515,65.0754 227,59.5C 225.891,57.1853 224.057,55.6853 221.5,55C 214.91,52.5208 208.243,50.3542 201.5,48.5C 197.195,43.8594 192.861,39.1927 188.5,34.5 Z"/></g>
<g><path style="opacity:1" fill="#19baf6" d="M 56.5,48.5 C 56.0472,49.4584 55.3805,50.2917 54.5,51C 46.3779,53.135 40.5446,57.9684 37,65.5C 35.0199,72.0871 33.3532,78.7538 32,85.5C 27.0285,121.206 35.8618,152.873 58.5,180.5C 57.1667,180.5 55.8333,180.5 54.5,180.5C 54.8841,178.335 54.2174,176.668 52.5,175.5C 52.3425,177.513 51.6758,179.179 50.5,180.5C 47.7774,177.414 45.2774,174.08 43,170.5C 27.8566,143.448 22.19,114.448 26,83.5C 26.7722,74.64 28.4388,65.9733 31,57.5C 39.1896,53.6036 47.6896,50.6036 56.5,48.5 Z"/></g>
<g><path style="opacity:1" fill="#c9e2ef" d="M 182.5,71.5 C 184.833,73.5 187.167,75.5 189.5,77.5C 196.814,92.3627 193.481,104.196 179.5,113C 173.364,115.178 167.031,116.012 160.5,115.5C 161.057,110.948 162.057,106.615 163.5,102.5C 163.5,103.833 163.5,105.167 163.5,106.5C 166.518,106.665 169.518,106.498 172.5,106C 188.498,98.0858 191.831,86.5858 182.5,71.5 Z"/></g>
<g><path style="opacity:1" fill="#112233" d="M 44.5,120.5 C 45.8333,120.5 47.1667,120.5 48.5,120.5C 48.5,121.833 48.5,123.167 48.5,124.5C 47.1667,124.5 45.8333,124.5 44.5,124.5C 44.5,123.167 44.5,121.833 44.5,120.5 Z"/></g>
<g><path style="opacity:1" fill="#d8212a" d="M 155.5,74.5 C 157.532,75.0478 158.532,76.3812 158.5,78.5C 158.999,108.142 148.999,133.475 128.5,154.5C 128.5,150.167 128.5,145.833 128.5,141.5C 132.694,141.27 136.194,139.603 139,136.5C 152.012,117.661 157.512,96.9943 155.5,74.5 Z"/></g>
<g><path style="opacity:1" fill="#cbe5f2" d="M 224.5,91.5 C 225.636,115.997 220.469,138.997 209,160.5C 204.696,167.628 199.529,173.961 193.5,179.5C 176.236,196.128 155.569,205.128 131.5,206.5C 131.5,203.167 131.5,199.833 131.5,196.5C 142.276,196.22 152.276,193.553 161.5,188.5C 161.5,189.5 161.5,190.5 161.5,191.5C 162.833,191.5 164.167,191.5 165.5,191.5C 165.5,190.167 165.5,188.833 165.5,187.5C 164.5,187.5 163.5,187.5 162.5,187.5C 172.719,184.214 181.052,178.214 187.5,169.5C 188.857,170.685 190.357,171.685 192,172.5C 194.251,171.937 195.251,170.603 195,168.5C 193.624,167.295 192.458,165.962 191.5,164.5C 192.496,164.586 193.329,164.252 194,163.5C 196.917,159.334 199.584,155.001 202,150.5C 202.239,148.041 201.739,145.707 200.5,143.5C 203.958,145.075 207.624,145.575 211.5,145C 214.167,142.333 214.167,139.667 211.5,137C 206.818,137.464 202.151,137.297 197.5,136.5C 202.529,121.864 203.863,106.864 201.5,91.5C 209.167,91.5 216.833,91.5 224.5,91.5 Z"/></g>
<g><path style="opacity:1" fill="#092338" d="M 210.5,120.5 C 211.833,120.5 213.167,120.5 214.5,120.5C 214.833,123.5 213.5,124.833 210.5,124.5C 210.5,123.167 210.5,121.833 210.5,120.5 Z"/></g>
<g><path style="opacity:1" fill="#07253d" d="M 188.5,34.5 C 192.861,39.1927 197.195,43.8594 201.5,48.5C 201.856,49.8699 202.69,50.8699 204,51.5C 215.515,54.815 222.181,62.4817 224,74.5C 225.393,80.3045 225.559,85.9712 224.5,91.5C 216.833,91.5 209.167,91.5 201.5,91.5C 203.863,106.864 202.529,121.864 197.5,136.5C 202.151,137.297 206.818,137.464 211.5,137C 214.167,139.667 214.167,142.333 211.5,145C 207.624,145.575 203.958,145.075 200.5,143.5C 198.401,142.769 196.401,142.769 194.5,143.5C 192.164,148.175 189.331,152.508 186,156.5C 186.32,160.022 188.153,162.689 191.5,164.5C 192.458,165.962 193.624,167.295 195,168.5C 195.251,170.603 194.251,171.937 192,172.5C 190.357,171.685 188.857,170.685 187.5,169.5C 185.539,167.037 183.372,164.703 181,162.5C 169.918,173.293 156.751,180.293 141.5,183.5C 139.42,182.421 138.087,180.755 137.5,178.5C 152.754,176.706 165.754,170.373 176.5,159.5C 173.481,155.647 169.981,152.313 166,149.5C 156.488,159.06 144.988,164.06 131.5,164.5C 131.5,167.833 131.5,171.167 131.5,174.5C 129.5,174.5 127.5,174.5 125.5,174.5C 125.5,171.5 125.5,168.5 125.5,165.5C 111.961,164.23 100.295,158.897 90.5,149.5C 87.0154,152.484 83.682,155.651 80.5,159C 91.1031,169.799 103.77,176.633 118.5,179.5C 117.766,180.708 117.433,182.041 117.5,183.5C 111.184,183.341 105.184,181.841 99.5,179C 91.1142,174.604 83.2809,169.437 76,163.5C 72.8815,165.615 70.0482,168.115 67.5,171C 65.8659,171.494 64.1992,171.66 62.5,171.5C 62.3433,170.127 62.51,168.793 63,167.5C 65.7026,164.462 68.7026,161.795 72,159.5C 72.6667,158.833 72.6667,158.167 72,157.5C 68.5709,153.228 65.7376,148.562 63.5,143.5C 62.6667,143.167 61.8333,142.833 61,142.5C 57.3273,143.124 53.8273,144.124 50.5,145.5C 44.7509,144.002 44.0842,141.169 48.5,137C 52.0749,137.262 55.5749,137.095 59,136.5C 58.6611,131.463 57.8278,126.463 56.5,121.5C 57.2197,117.3 57.8864,112.967 58.5,108.5C 57.4104,107.391 57.4104,106.391 58.5,105.5C 59.1671,109.313 59.8337,112.979 60.5,116.5C 61.6456,122.515 63.3123,128.515 65.5,134.5C 65.8333,134.833 66.1667,135.167 66.5,135.5C 69.1092,134.77 71.7759,134.27 74.5,134C 75.8045,133.196 76.4712,132.029 76.5,130.5C 74.9393,127.068 74.106,123.401 74,119.5C 71.1563,117.841 68.6563,115.841 66.5,113.5C 67.5585,112.4 68.3918,111.066 69,109.5C 72.3324,111.443 72.1658,112.61 68.5,113C 69.9663,113.635 71.2997,114.469 72.5,115.5C 72.76,114.095 73.0934,112.762 73.5,111.5C 73.8333,111.5 74.1667,111.5 74.5,111.5C 76.4927,113.163 78.8261,114.33 81.5,115C 86.1548,115.499 90.8215,115.666 95.5,115.5C 94.8699,111.952 93.8699,108.619 92.5,105.5C 92.4921,102.455 92.1587,99.4552 91.5,96.5C 92.3276,90.6807 92.8276,84.6807 93,78.5C 94.1455,77.3157 95.3121,77.3157 96.5,78.5C 96.763,88.2705 97.9296,97.9371 100,107.5C 102.667,117.831 107.167,127.164 113.5,135.5C 113.75,137.674 114.75,139.341 116.5,140.5C 119.488,146.146 123.488,150.813 128.5,154.5C 148.999,133.475 158.999,108.142 158.5,78.5C 159.321,81.6414 159.821,84.9748 160,88.5C 160.333,85.1667 160.667,81.8333 161,78.5C 161.212,83.8099 162.045,88.9766 163.5,94C 163.167,94.1667 162.833,94.3333 162.5,94.5C 161.702,92.9223 161.202,91.2556 161,89.5C 160.281,93.1454 159.781,96.8121 159.5,100.5C 160.5,100.5 161.5,100.5 162.5,100.5C 162.556,97.483 162.89,97.1497 163.5,99.5C 163.5,100.5 163.5,101.5 163.5,102.5C 162.057,106.615 161.057,110.948 160.5,115.5C 167.031,116.012 173.364,115.178 179.5,113C 193.481,104.196 196.814,92.3627 189.5,77.5C 190.458,77.0472 191.292,76.3805 192,75.5C 194.947,77.7821 196.613,80.7821 197,84.5C 197.278,83.5842 197.778,82.9175 198.5,82.5C 198.804,83.1499 199.137,83.8165 199.5,84.5C 206.468,85.497 213.468,85.8303 220.5,85.5C 220.193,64.3593 209.527,53.8593 188.5,54C 190.67,52.4138 193.004,51.0804 195.5,50C 190.302,43.6362 184.635,37.8029 178.5,32.5C 177.537,31.6365 177.537,30.9698 178.5,30.5C 181.596,32.4211 184.93,33.7544 188.5,34.5 Z"/></g>
<g><path style="opacity:1" fill="#10547f" d="M 166.5,134.5 C 167.609,138.602 170.275,140.269 174.5,139.5C 174.232,137.901 174.566,136.568 175.5,135.5C 175.216,137.415 175.549,139.081 176.5,140.5C 171.384,142.448 167.717,140.781 165.5,135.5C 165.624,134.893 165.957,134.56 166.5,134.5 Z"/></g>
<g><path style="opacity:1" fill="#15b0f3" d="M 176.5,127.5 C 170.357,125.99 167.024,128.323 166.5,134.5C 165.957,134.56 165.624,134.893 165.5,135.5C 167.717,140.781 171.384,142.448 176.5,140.5C 181.093,139.351 185.426,140.018 189.5,142.5C 187.238,147.09 184.238,151.09 180.5,154.5C 171.316,146.814 162.649,138.647 154.5,130C 155.206,127.38 156.206,124.88 157.5,122.5C 164.172,121.716 170.838,121.049 177.5,120.5C 177.552,122.903 177.219,125.236 176.5,127.5 Z"/></g>
<g><path style="opacity:1" fill="#e37981" d="M 113.5,134.5 C 115.008,136.181 116.008,138.181 116.5,140.5C 114.75,139.341 113.75,137.674 113.5,135.5C 113.5,135.167 113.5,134.833 113.5,134.5 Z"/></g>
<g><path style="opacity:1" fill="#15b8f6" d="M 89.5,135.5 C 88.5554,138.987 86.2221,140.32 82.5,139.5C 83.1089,136.122 81.7756,134.122 78.5,133.5C 79.8276,129.746 82.4942,128.579 86.5,130C 88.6709,131.174 89.6709,133.007 89.5,135.5 Z"/></g>
<g><path style="opacity:1" fill="#1ab5f4" d="M 178.5,130.5 C 179.404,131.209 179.737,132.209 179.5,133.5C 177.62,133.229 176.287,133.896 175.5,135.5C 174.566,136.568 174.232,137.901 174.5,139.5C 170.275,140.269 167.609,138.602 166.5,134.5C 167.933,133.167 169.267,131.667 170.5,130C 173.221,129.398 175.887,129.565 178.5,130.5 Z"/></g>
<g><path style="opacity:1" fill="#c2e5ec" d="M 80.5,127.5 C 85.8231,126.485 89.1564,128.485 90.5,133.5C 90.6716,134.492 90.3382,135.158 89.5,135.5C 89.6709,133.007 88.6709,131.174 86.5,130C 82.4942,128.579 79.8276,129.746 78.5,133.5C 76.9844,130.92 77.6511,128.92 80.5,127.5 Z"/></g>
<g><path style="opacity:1" fill="#cff0f6" d="M 176.5,127.5 C 177.167,128.5 177.833,129.5 178.5,130.5C 175.887,129.565 173.221,129.398 170.5,130C 169.267,131.667 167.933,133.167 166.5,134.5C 167.024,128.323 170.357,125.99 176.5,127.5 Z"/></g>
<g><path style="opacity:1" fill="#0fb0f3" d="M 195.5,105.5 C 197.758,114.752 196.925,124.085 193,133.5C 192.161,134.624 190.994,135.291 189.5,135.5C 186.86,134.905 184.193,134.572 181.5,134.5C 181.523,129.126 182.023,123.793 183,118.5C 189.202,116.01 193.368,111.677 195.5,105.5 Z"/></g>
<g><path style="opacity:1" fill="#13b5f4" d="M 90.5,133.5 C 89.1564,128.485 85.8231,126.485 80.5,127.5C 79.8505,125.565 79.5172,123.565 79.5,121.5C 85.8682,121.17 92.2015,121.504 98.5,122.5C 100.27,125.673 101.103,129.006 101,132.5C 92.9825,140.019 84.8158,147.352 76.5,154.5C 72.5338,150.544 69.8671,145.877 68.5,140.5C 71.0379,140.493 73.5379,140.159 76,139.5C 80.9853,142.458 85.6519,142.125 90,138.5C 91.4544,136.756 91.6211,135.089 90.5,133.5 Z"/></g>
<g><path style="opacity:1" fill="#a18084" d="M 136.5,120.5 C 137.404,121.209 137.737,122.209 137.5,123.5C 131.31,123.823 125.31,123.49 119.5,122.5C 125.598,123.117 131.265,122.45 136.5,120.5 Z"/></g>
<g><path style="opacity:1" fill="#11b5f8" d="M 66.5,113.5 C 68.6563,115.841 71.1563,117.841 74,119.5C 74.106,123.401 74.9393,127.068 76.5,130.5C 76.4712,132.029 75.8045,133.196 74.5,134C 71.7759,134.27 69.1092,134.77 66.5,135.5C 66.1667,135.167 65.8333,134.833 65.5,134.5C 63.3123,128.515 61.6456,122.515 60.5,116.5C 60.1866,113.753 60.52,111.086 61.5,108.5C 62.8545,110.521 64.5212,112.188 66.5,113.5 Z"/></g>
<g><path style="opacity:1" fill="#c7e2ef" d="M 92.5,105.5 C 93.8699,108.619 94.8699,111.952 95.5,115.5C 90.8215,115.666 86.1548,115.499 81.5,115C 78.8261,114.33 76.4927,113.163 74.5,111.5C 80.6383,112.268 86.305,111.101 91.5,108C 92.2524,107.329 92.5858,106.496 92.5,105.5 Z"/></g>
<g><path style="opacity:1" fill="#0a223a" d="M 136.5,120.5 C 131.265,122.45 125.598,123.117 119.5,122.5C 120.523,117.929 121.856,113.429 123.5,109C 120.699,106.526 118.199,103.693 116,100.5C 112.471,89.3554 116.471,82.6887 128,80.5C 135.177,81.0766 139.844,84.7433 142,91.5C 142.652,94.594 142.318,97.594 141,100.5C 138.876,103.968 136.043,106.635 132.5,108.5C 134.438,112.313 135.771,116.313 136.5,120.5 Z"/></g>
<g><path style="opacity:1" fill="#f6f8f9" d="M 200.5,143.5 C 201.739,145.707 202.239,148.041 202,150.5C 199.584,155.001 196.917,159.334 194,163.5C 193.329,164.252 192.496,164.586 191.5,164.5C 188.153,162.689 186.32,160.022 186,156.5C 189.331,152.508 192.164,148.175 194.5,143.5C 196.401,142.769 198.401,142.769 200.5,143.5 Z"/></g>
<g><path style="opacity:1" fill="#11b4f8" d="M 150.5,136.5 C 153.603,138.423 156.603,140.59 159.5,143C 161.007,143.837 161.507,145.004 161,146.5C 153.216,153.81 144.049,157.977 133.5,159C 140.026,152.098 145.693,144.598 150.5,136.5 Z"/></g>
<g><path style="opacity:1" fill="#15b3f2" d="M 103.5,136.5 C 105.017,136.511 106.184,137.177 107,138.5C 110.969,146.109 116.136,152.776 122.5,158.5C 112.14,158.243 103.307,154.243 96,146.5C 95.3333,145.833 95.3333,145.167 96,144.5C 98.705,141.964 101.205,139.297 103.5,136.5 Z"/></g>
<g><path style="opacity:0.899" fill="#000000" d="M 258.5,152.5 C 261.167,152.5 263.833,152.5 266.5,152.5C 266.334,161.506 266.5,170.506 267,179.5C 273.788,170.377 280.954,161.544 288.5,153C 292.167,152.333 295.833,152.333 299.5,153C 292.145,160.887 285.145,169.054 278.5,177.5C 285.585,188.672 292.919,199.672 300.5,210.5C 297.216,211.657 293.882,211.824 290.5,211C 284.457,201.747 278.291,192.58 272,183.5C 269.957,185.208 268.29,187.208 267,189.5C 266.5,196.826 266.334,204.159 266.5,211.5C 263.833,211.5 261.167,211.5 258.5,211.5C 258.5,191.833 258.5,172.167 258.5,152.5 Z"/></g>
<g><path style="opacity:0.915" fill="#000000" d="M 305.5,152.5 C 316.5,152.5 327.5,152.5 338.5,152.5C 338.5,154.833 338.5,157.167 338.5,159.5C 330.167,159.5 321.833,159.5 313.5,159.5C 313.5,165.5 313.5,171.5 313.5,177.5C 321.167,177.5 328.833,177.5 336.5,177.5C 336.5,179.833 336.5,182.167 336.5,184.5C 328.833,184.5 321.167,184.5 313.5,184.5C 313.5,191.167 313.5,197.833 313.5,204.5C 322.167,204.5 330.833,204.5 339.5,204.5C 339.5,206.833 339.5,209.167 339.5,211.5C 328.167,211.5 316.833,211.5 305.5,211.5C 305.5,191.833 305.5,172.167 305.5,152.5 Z"/></g>
<g><path style="opacity:0.915" fill="#000000" d="M 349.5,152.5 C 360.5,152.5 371.5,152.5 382.5,152.5C 382.5,154.833 382.5,157.167 382.5,159.5C 374.167,159.5 365.833,159.5 357.5,159.5C 357.5,165.5 357.5,171.5 357.5,177.5C 365.167,177.5 372.833,177.5 380.5,177.5C 380.5,179.833 380.5,182.167 380.5,184.5C 372.833,184.5 365.167,184.5 357.5,184.5C 357.5,191.167 357.5,197.833 357.5,204.5C 366.167,204.5 374.833,204.5 383.5,204.5C 383.5,206.833 383.5,209.167 383.5,211.5C 372.167,211.5 360.833,211.5 349.5,211.5C 349.5,191.833 349.5,172.167 349.5,152.5 Z"/></g>
<g><path style="opacity:0.908" fill="#000000" d="M 394.5,152.5 C 401.841,152.334 409.174,152.5 416.5,153C 427.848,156.856 432.015,164.69 429,176.5C 426.227,182.94 421.394,186.774 414.5,188C 409.845,188.499 405.179,188.666 400.5,188.5C 400.5,196.167 400.5,203.833 400.5,211.5C 397.833,211.5 395.167,211.5 392.5,211.5C 391.864,191.6 392.531,171.933 394.5,152.5 Z M 404.5,158.5 C 409.446,158.589 414.113,159.755 418.5,162C 423.621,170.181 421.955,176.515 413.5,181C 409.179,181.499 404.846,181.666 400.5,181.5C 400.5,174.167 400.5,166.833 400.5,159.5C 402.099,159.768 403.432,159.434 404.5,158.5 Z"/></g>
<g><path style="opacity:0.915" fill="#000000" d="M 438.5,152.5 C 449.5,152.5 460.5,152.5 471.5,152.5C 471.5,154.833 471.5,157.167 471.5,159.5C 463.167,159.5 454.833,159.5 446.5,159.5C 446.5,165.5 446.5,171.5 446.5,177.5C 454.167,177.5 461.833,177.5 469.5,177.5C 469.5,179.833 469.5,182.167 469.5,184.5C 461.833,184.5 454.167,184.5 446.5,184.5C 446.5,191.167 446.5,197.833 446.5,204.5C 455.167,204.5 463.833,204.5 472.5,204.5C 472.5,206.833 472.5,209.167 472.5,211.5C 461.167,211.5 449.833,211.5 438.5,211.5C 438.5,191.833 438.5,172.167 438.5,152.5 Z"/></g>
<g><path style="opacity:0.906" fill="#000000" d="M 483.5,152.5 C 490.841,152.334 498.174,152.5 505.5,153C 516.698,155.88 520.865,163.046 518,174.5C 516.363,178.637 513.53,181.637 509.5,183.5C 511.804,185.431 513.638,187.764 515,190.5C 516.994,197.476 518.827,204.476 520.5,211.5C 517.552,211.777 514.719,211.444 512,210.5C 510.185,203.06 507.685,195.893 504.5,189C 499.742,186.856 494.742,186.023 489.5,186.5C 489.5,194.833 489.5,203.167 489.5,211.5C 486.833,211.5 484.167,211.5 481.5,211.5C 480.864,191.6 481.531,171.933 483.5,152.5 Z M 491.5,158.5 C 498.152,157.618 503.985,159.285 509,163.5C 512.171,172.659 509.004,178.159 499.5,180C 496.183,180.498 492.85,180.665 489.5,180.5C 488.924,172.889 489.59,165.556 491.5,158.5 Z"/></g>
<g><path style="opacity:1" fill="#0fb3fa" d="M 125.5,174.5 C 122.933,175.717 120.6,177.384 118.5,179.5C 103.77,176.633 91.1031,169.799 80.5,159C 83.682,155.651 87.0154,152.484 90.5,149.5C 100.295,158.897 111.961,164.23 125.5,165.5C 125.5,168.5 125.5,171.5 125.5,174.5 Z"/></g>
<g><path style="opacity:1" fill="#10b4fb" d="M 137.5,178.5 C 135.223,177.551 133.223,176.218 131.5,174.5C 131.5,171.167 131.5,167.833 131.5,164.5C 144.988,164.06 156.488,159.06 166,149.5C 169.981,152.313 173.481,155.647 176.5,159.5C 165.754,170.373 152.754,176.706 137.5,178.5 Z"/></g>
<g><path style="opacity:1" fill="#1897d9" d="M 201.5,48.5 C 208.243,50.3542 214.91,52.5208 221.5,55C 224.057,55.6853 225.891,57.1853 227,59.5C 228.515,65.0754 229.515,70.7421 230,76.5C 237.644,131.117 220.144,175.45 177.5,209.5C 176.128,207.65 176.628,206.317 179,205.5C 179.667,204.833 179.667,204.167 179,203.5C 177.758,204.872 176.258,205.872 174.5,206.5C 173.167,205.167 171.833,205.167 170.5,206.5C 169.749,205.624 169.249,204.624 169,203.5C 167.644,204.38 166.144,204.714 164.5,204.5C 176.549,198.804 187.215,191.137 196.5,181.5C 195.995,180.081 194.995,179.415 193.5,179.5C 199.529,173.961 204.696,167.628 209,160.5C 220.469,138.997 225.636,115.997 224.5,91.5C 225.559,85.9712 225.393,80.3045 224,74.5C 222.181,62.4817 215.515,54.815 204,51.5C 202.69,50.8699 201.856,49.8699 201.5,48.5 Z"/></g>
<g><path style="opacity:1" fill="#50b4d2" d="M 130.5,178.5 C 130.5,178.833 130.5,179.167 130.5,179.5C 126.729,178.774 124.063,180.107 122.5,183.5C 122.624,184.107 122.957,184.44 123.5,184.5C 123.5,185.167 123.167,185.5 122.5,185.5C 121.833,184.833 121.167,184.167 120.5,183.5C 122.644,178.945 125.977,177.278 130.5,178.5 Z"/></g>
<g><path style="opacity:1" fill="#d6f6f8" d="M 130.5,179.5 C 127.385,179.931 125.051,181.598 123.5,184.5C 122.957,184.44 122.624,184.107 122.5,183.5C 124.063,180.107 126.729,178.774 130.5,179.5 Z"/></g>
<g><path style="opacity:1" fill="#14b2f3" d="M 130.5,179.5 C 135.343,182.553 135.676,186.053 131.5,190C 126.843,191.578 123.843,190.078 122.5,185.5C 123.167,185.5 123.5,185.167 123.5,184.5C 125.051,181.598 127.385,179.931 130.5,179.5 Z"/></g>
<g><path style="opacity:1" fill="#13253b" d="M 92.5,187.5 C 93.8333,187.5 95.1667,187.5 96.5,187.5C 96.1144,191.738 94.4477,192.404 91.5,189.5C 91.8627,188.817 92.1961,188.15 92.5,187.5 Z"/></g>
<g><path style="opacity:1" fill="#0e2437" d="M 162.5,187.5 C 163.5,187.5 164.5,187.5 165.5,187.5C 165.5,188.833 165.5,190.167 165.5,191.5C 164.167,191.5 162.833,191.5 161.5,191.5C 161.5,190.5 161.5,189.5 161.5,188.5C 161.5,187.833 161.833,187.5 162.5,187.5 Z"/></g>
<g><path style="opacity:1" fill="#14b5fa" d="M 58.5,180.5 C 67.0675,189.12 76.7342,196.287 87.5,202C 99.395,208.307 112.062,211.474 125.5,211.5C 125.5,220.167 125.5,228.833 125.5,237.5C 95.0234,225.688 70.0234,206.688 50.5,180.5C 51.6758,179.179 52.3425,177.513 52.5,175.5C 54.2174,176.668 54.8841,178.335 54.5,180.5C 55.8333,180.5 57.1667,180.5 58.5,180.5 Z"/></g>
<g><path style="opacity:1" fill="#0a9ae2" d="M 177.5,209.5 C 163.837,221.343 148.503,230.676 131.5,237.5C 131.5,235.167 131.5,232.833 131.5,230.5C 141.333,225.672 149.333,218.672 155.5,209.5C 155.043,208.702 154.376,208.369 153.5,208.5C 156.902,206.722 160.569,205.389 164.5,204.5C 166.144,204.714 167.644,204.38 169,203.5C 169.249,204.624 169.749,205.624 170.5,206.5C 171.833,205.167 173.167,205.167 174.5,206.5C 176.258,205.872 177.758,204.872 179,203.5C 179.667,204.167 179.667,204.833 179,205.5C 176.628,206.317 176.128,207.65 177.5,209.5 Z"/></g>
<g><path style="opacity:1" fill="#0db6fb" d="M 153.5,208.5 C 154.376,208.369 155.043,208.702 155.5,209.5C 149.333,218.672 141.333,225.672 131.5,230.5C 131.5,224.167 131.5,217.833 131.5,211.5C 138.951,211.245 146.285,210.245 153.5,208.5 Z"/></g>
</svg>
