<svg width="72" height="30" viewBox="0 0 72 30" fill="none" xmlns="http://www.w3.org/2000/svg">
<path d="M12 1.73205C13.8564 0.660254 16.1436 0.660254 18 1.73205L24.9904 5.76795C26.8468 6.83975 27.9904 8.82051 27.9904 10.9641V19.0359C27.9904 21.1795 26.8468 23.1603 24.9904 24.2321L18 28.2679C16.1436 29.3397 13.8564 29.3397 12 28.2679L5.00962 24.2321C3.15321 23.1603 2.00962 21.1795 2.00962 19.0359V10.9641C2.00962 8.82051 3.15321 6.83975 5.00962 5.76795L12 1.73205Z" fill="white"/>
<path d="M17.4055 12.0078C17.3459 11.4496 17.0945 11.0149 16.6513 10.7038C16.2124 10.3928 15.6413 10.2372 14.9382 10.2372C14.4439 10.2372 14.0199 10.3118 13.6662 10.4609C13.3125 10.6101 13.0419 10.8125 12.8544 11.0682C12.6669 11.3239 12.571 11.6158 12.5668 11.9439C12.5668 12.2166 12.6286 12.4531 12.7521 12.6534C12.88 12.8537 13.0526 13.0241 13.2699 13.1648C13.4872 13.3011 13.728 13.4162 13.9922 13.5099C14.2564 13.6037 14.5227 13.6825 14.7912 13.7464L16.0185 14.0533C16.5128 14.1683 16.9879 14.3239 17.4439 14.5199C17.9041 14.7159 18.3153 14.9631 18.6776 15.2614C19.044 15.5597 19.3338 15.9197 19.5469 16.3416C19.7599 16.7635 19.8665 17.2578 19.8665 17.8246C19.8665 18.5916 19.6705 19.267 19.2784 19.8509C18.8864 20.4304 18.3196 20.8842 17.5781 21.2124C16.8409 21.5362 15.9482 21.6982 14.8999 21.6982C13.8814 21.6982 12.9972 21.5405 12.2472 21.2251C11.5014 20.9098 10.9176 20.4496 10.4957 19.8445C10.0781 19.2393 9.85227 18.5021 9.81818 17.6328H12.1513C12.1854 18.0888 12.326 18.468 12.5732 18.7706C12.8203 19.0732 13.142 19.299 13.5384 19.4482C13.9389 19.5973 14.3864 19.6719 14.8807 19.6719C15.3963 19.6719 15.848 19.5952 16.2358 19.4418C16.6278 19.2841 16.9347 19.0668 17.1562 18.7898C17.3778 18.5085 17.4908 18.1804 17.495 17.8054C17.4908 17.4645 17.3906 17.1832 17.1946 16.9616C16.9986 16.7358 16.7237 16.5483 16.37 16.3991C16.0206 16.2457 15.6115 16.1094 15.1428 15.9901L13.6534 15.6065C12.5753 15.3295 11.723 14.9098 11.0966 14.3473C10.4744 13.7805 10.1634 13.0284 10.1634 12.0909C10.1634 11.3196 10.3722 10.6442 10.7898 10.0646C11.2116 9.48509 11.7848 9.03551 12.5092 8.71591C13.2337 8.39204 14.054 8.23011 14.9702 8.23011C15.8991 8.23011 16.7131 8.39204 17.4119 8.71591C18.1151 9.03551 18.6669 9.48082 19.0675 10.0518C19.468 10.6186 19.6747 11.2706 19.6875 12.0078H17.4055Z" fill="#3E97FF"/>
<path d="M42.4055 12.0078C42.3459 11.4496 42.0945 11.0149 41.6513 10.7038C41.2124 10.3928 40.6413 10.2372 39.9382 10.2372C39.4439 10.2372 39.0199 10.3118 38.6662 10.4609C38.3125 10.6101 38.0419 10.8125 37.8544 11.0682C37.6669 11.3239 37.571 11.6158 37.5668 11.9439C37.5668 12.2166 37.6286 12.4531 37.7521 12.6534C37.88 12.8537 38.0526 13.0241 38.2699 13.1648C38.4872 13.3011 38.728 13.4162 38.9922 13.5099C39.2564 13.6037 39.5227 13.6825 39.7912 13.7464L41.0185 14.0533C41.5128 14.1683 41.9879 14.3239 42.4439 14.5199C42.9041 14.7159 43.3153 14.9631 43.6776 15.2614C44.044 15.5597 44.3338 15.9197 44.5469 16.3416C44.7599 16.7635 44.8665 17.2578 44.8665 17.8246C44.8665 18.5916 44.6705 19.267 44.2784 19.8509C43.8864 20.4304 43.3196 20.8842 42.5781 21.2124C41.8409 21.5362 40.9482 21.6982 39.8999 21.6982C38.8814 21.6982 37.9972 21.5405 37.2472 21.2251C36.5014 20.9098 35.9176 20.4496 35.4957 19.8445C35.0781 19.2393 34.8523 18.5021 34.8182 17.6328H37.1513C37.1854 18.0888 37.326 18.468 37.5732 18.7706C37.8203 19.0732 38.142 19.299 38.5384 19.4482C38.9389 19.5973 39.3864 19.6719 39.8807 19.6719C40.3963 19.6719 40.848 19.5952 41.2358 19.4418C41.6278 19.2841 41.9347 19.0668 42.1562 18.7898C42.3778 18.5085 42.4908 18.1804 42.495 17.8054C42.4908 17.4645 42.3906 17.1832 42.1946 16.9616C41.9986 16.7358 41.7237 16.5483 41.37 16.3991C41.0206 16.2457 40.6115 16.1094 40.1428 15.9901L38.6534 15.6065C37.5753 15.3295 36.723 14.9098 36.0966 14.3473C35.4744 13.7805 35.1634 13.0284 35.1634 12.0909C35.1634 11.3196 35.3722 10.6442 35.7898 10.0646C36.2116 9.48509 36.7848 9.03551 37.5092 8.71591C38.2337 8.39204 39.054 8.23011 39.9702 8.23011C40.8991 8.23011 41.7131 8.39204 42.4119 8.71591C43.1151 9.03551 43.6669 9.48082 44.0675 10.0518C44.468 10.6186 44.6747 11.2706 44.6875 12.0078H42.4055ZM49.7037 21.6982C49.0815 21.6982 48.5211 21.5874 48.0225 21.3658C47.5282 21.1399 47.1362 20.8075 46.8464 20.3686C46.5609 19.9297 46.4181 19.3885 46.4181 18.745C46.4181 18.1911 46.5204 17.733 46.725 17.3707C46.9295 17.0085 47.2086 16.7188 47.5623 16.5014C47.916 16.2841 48.3145 16.12 48.7576 16.0092C49.2051 15.8942 49.6674 15.8111 50.1447 15.7599C50.72 15.7003 51.1866 15.647 51.5446 15.6001C51.9025 15.549 52.1625 15.4723 52.3244 15.37C52.4906 15.2635 52.5737 15.0994 52.5737 14.8778V14.8395C52.5737 14.358 52.4309 13.9851 52.1454 13.7209C51.8599 13.4567 51.4487 13.3246 50.9118 13.3246C50.345 13.3246 49.8954 13.4482 49.563 13.6953C49.2349 13.9425 49.0133 14.2344 48.8983 14.571L46.7377 14.2642C46.9082 13.6676 47.1895 13.169 47.5815 12.7685C47.9735 12.3636 48.4529 12.0611 49.0197 11.8608C49.5865 11.6562 50.2129 11.554 50.899 11.554C51.372 11.554 51.8429 11.6094 52.3116 11.7202C52.7804 11.831 53.2086 12.0142 53.5964 12.2699C53.9842 12.5213 54.2953 12.8643 54.5297 13.299C54.7683 13.7337 54.8876 14.277 54.8876 14.929V21.5H52.6632V20.1513H52.5865C52.4458 20.424 52.2477 20.6797 51.992 20.9183C51.7406 21.1527 51.4231 21.3423 51.0396 21.4872C50.6603 21.6278 50.215 21.6982 49.7037 21.6982ZM50.3045 19.9979C50.769 19.9979 51.1717 19.9062 51.5126 19.723C51.8535 19.5355 52.1156 19.2884 52.2988 18.9815C52.4863 18.6747 52.5801 18.3402 52.5801 17.978V16.821C52.5076 16.8807 52.3841 16.9361 52.2093 16.9872C52.0389 17.0384 51.8471 17.0831 51.6341 17.1214C51.421 17.1598 51.21 17.1939 51.0012 17.2237C50.7924 17.2536 50.6113 17.2791 50.4579 17.3004C50.1127 17.3473 49.8038 17.424 49.5311 17.5305C49.2583 17.6371 49.0431 17.7862 48.8855 17.978C48.7278 18.1655 48.649 18.4084 48.649 18.7067C48.649 19.1328 48.8045 19.4545 49.1156 19.6719C49.4267 19.8892 49.823 19.9979 50.3045 19.9979ZM63.4721 17.3707V11.6818H65.786V21.5H63.5424V19.755H63.4402C63.2186 20.3047 62.8542 20.7543 62.3471 21.1037C61.8443 21.4531 61.2243 21.6278 60.487 21.6278C59.8436 21.6278 59.2747 21.4851 58.7804 21.1996C58.2903 20.9098 57.9068 20.4901 57.6298 19.9403C57.3528 19.3864 57.2143 18.7173 57.2143 17.9332V11.6818H59.5282V17.5753C59.5282 18.1974 59.6987 18.6918 60.0396 19.0582C60.3805 19.4247 60.8279 19.608 61.3819 19.608C61.7228 19.608 62.0531 19.5249 62.3727 19.3587C62.6923 19.1925 62.9544 18.9453 63.1589 18.6172C63.3677 18.2848 63.4721 17.8693 63.4721 17.3707ZM70.4794 8.40909V21.5H68.1655V8.40909H70.4794Z" fill="white"/>
</svg>