<?xml version="1.0" encoding="UTF-8"?>
<svg id="uuid-4857f5e7-f1f9-4a12-b282-2dc0a452a7e6" data-name="Layer 1" xmlns="http://www.w3.org/2000/svg" xmlns:xlink="http://www.w3.org/1999/xlink" viewBox="0 0 55.024 26.476">
  <image width="738" height="738" transform="scale(.036)" xlink:href="assets/media/logos/Logo.png"/>
  <g>
    <path d="M34.953,14.742c-.507.183-1.508.481-2.691.481-1.326,0-2.417-.338-3.275-1.157-.754-.728-1.223-1.898-1.223-3.263.014-2.613,1.808-4.524,4.745-4.524,1.015,0,1.808.221,2.185.403l-.273.923c-.468-.208-1.053-.377-1.937-.377-2.132,0-3.523,1.326-3.523,3.523,0,2.223,1.339,3.536,3.379,3.536.741,0,1.248-.104,1.508-.234v-2.613h-1.78v-.91h2.886v4.212Z" fill="white" stroke-width="0"/>
    <path d="M38.098,12.375l-.91,2.757h-1.17l2.977-8.763h1.365l2.99,8.763h-1.209l-.937-2.757h-3.106ZM40.971,11.492l-.858-2.522c-.194-.572-.325-1.092-.455-1.599h-.025c-.13.52-.273,1.053-.442,1.586l-.858,2.535h2.64Z" fill="white" stroke-width="0"/>
    <path d="M45.3,7.331h-2.665v-.962h6.487v.962h-2.679v7.801h-1.144v-7.801Z" fill="white" stroke-width="0"/>
    <path d="M54.634,11.024h-3.406v3.159h3.796v.95h-4.927V6.369h4.732v.949h-3.602v2.769h3.406v.937Z" fill="white" stroke-width="0"/>
    <path d="M27.98,16.064h.783v2.926h.026c.162-.233.324-.45.478-.647l1.854-2.278h.972l-2.197,2.575,2.368,3.493h-.927l-1.998-2.98-.576.667v2.313h-.783v-6.068Z" fill="white" stroke-width="0"/>
    <path d="M35.999,19.287h-2.358v2.188h2.629v.657h-3.412v-6.068h3.276v.657h-2.493v1.918h2.358v.648Z" fill="white" stroke-width="0"/>
    <path d="M40.427,19.287h-2.358v2.188h2.629v.657h-3.412v-6.068h3.276v.657h-2.493v1.918h2.358v.648Z" fill="white" stroke-width="0"/>
    <path d="M41.713,16.136c.378-.062.873-.117,1.503-.117.774,0,1.342.181,1.701.504.334.288.531.729.531,1.27,0,.55-.162.981-.468,1.297-.414.441-1.089.666-1.854.666-.234,0-.45-.009-.63-.054v2.431h-.783v-5.996ZM42.497,19.062c.171.045.387.063.647.063.945,0,1.521-.459,1.521-1.297,0-.801-.566-1.188-1.431-1.188-.343,0-.604.027-.738.063v2.358Z" fill="white" stroke-width="0"/>
    <path d="M49.643,19.287h-2.358v2.188h2.629v.657h-3.412v-6.068h3.276v.657h-2.493v1.918h2.358v.648Z" fill="white" stroke-width="0"/>
    <path d="M50.929,16.145c.396-.081.963-.126,1.503-.126.837,0,1.378.153,1.756.495.306.271.477.685.477,1.152,0,.802-.504,1.333-1.143,1.549v.027c.468.161.747.594.891,1.224.198.847.343,1.432.469,1.666h-.811c-.099-.171-.234-.693-.405-1.449-.18-.838-.504-1.152-1.215-1.18h-.738v2.629h-.783v-5.987ZM51.712,18.909h.801c.837,0,1.368-.459,1.368-1.152,0-.783-.566-1.125-1.396-1.134-.378,0-.647.036-.773.072v2.214Z" fill="white" stroke-width="0"/>
  </g>
</svg>